<?xml version="1.0" encoding="UTF-8"?>
<svg xmlns="http://www.w3.org/2000/svg" xmlns:xlink="http://www.w3.org/1999/xlink" width="50px" height="px" viewBox="0 0 50 50" version="1.1">
<g id="surface1">
<path style=" stroke:none;fill-rule:nonzero;fill:rgb(78.431373%,95.686275%,87.058824%);fill-opacity:1;" d="M 46.53125 18.039062 L 36.59375 8.089844 C 30.191406 1.6875 19.808594 1.6875 13.40625 8.089844 L 3.460938 18.039062 C 1.945312 19.5625 1.089844 21.621094 1.089844 23.773438 L 1.089844 33.65625 C 1.089844 34.859375 2.0625 35.828125 3.261719 35.828125 C 4.460938 35.828125 5.433594 34.859375 5.433594 33.65625 C 5.433594 34.859375 6.40625 35.828125 7.609375 35.828125 C 8.808594 35.828125 9.78125 34.859375 9.78125 33.65625 C 9.78125 34.859375 10.757812 35.828125 11.957031 35.828125 C 13.160156 35.828125 14.132812 34.859375 14.132812 33.65625 C 14.132812 34.859375 15.101562 35.828125 16.304688 35.828125 C 17.503906 35.828125 18.476562 34.859375 18.476562 33.65625 C 18.476562 34.859375 19.453125 35.828125 20.65625 35.828125 C 21.851562 35.828125 22.828125 34.859375 22.828125 33.65625 C 22.828125 34.859375 23.796875 35.828125 25 35.828125 C 26.203125 35.828125 27.171875 34.859375 27.171875 33.65625 C 27.171875 34.859375 28.148438 35.828125 29.34375 35.828125 C 30.546875 35.828125 31.523438 34.859375 31.523438 33.65625 C 31.523438 34.859375 32.496094 35.828125 33.695312 35.828125 C 34.898438 35.828125 35.867188 34.859375 35.867188 33.65625 C 35.867188 34.859375 36.839844 35.828125 38.042969 35.828125 C 39.242188 35.828125 40.21875 34.859375 40.21875 33.65625 C 40.21875 34.859375 41.191406 35.828125 42.390625 35.828125 C 43.59375 35.828125 44.566406 34.859375 44.566406 33.65625 C 44.566406 34.859375 45.539062 35.828125 46.738281 35.828125 C 47.9375 35.828125 48.910156 34.859375 48.910156 33.65625 L 48.910156 23.773438 C 48.910156 21.621094 48.054688 19.5625 46.53125 18.039062 Z M 46.53125 18.039062 "/>
<path style=" stroke:none;fill-rule:nonzero;fill:rgb(52.941176%,87.45098%,83.921569%);fill-opacity:1;" d="M 18.589844 20.617188 C 18.589844 23.015625 16.640625 24.960938 14.238281 24.960938 C 11.835938 24.960938 9.890625 23.015625 9.890625 20.617188 C 9.890625 18.210938 11.835938 16.265625 14.238281 16.265625 C 16.640625 16.265625 18.589844 18.210938 18.589844 20.617188 Z M 18.589844 20.617188 "/>
<path style=" stroke:none;fill-rule:nonzero;fill:rgb(52.941176%,87.45098%,83.921569%);fill-opacity:1;" d="M 40.328125 20.617188 C 40.328125 23.015625 38.378906 24.960938 35.976562 24.960938 C 33.578125 24.960938 31.632812 23.015625 31.632812 20.617188 C 31.632812 18.210938 33.578125 16.265625 35.976562 16.265625 C 38.378906 16.265625 40.328125 18.210938 40.328125 20.617188 Z M 40.328125 20.617188 "/>
<path style=" stroke:none;fill-rule:nonzero;fill:rgb(29.019608%,49.019608%,72.941176%);fill-opacity:1;" d="M 25 22.027344 C 26.40625 22.027344 27.621094 21.21875 28.210938 20.042969 C 28.578125 19.304688 28.042969 18.441406 27.222656 18.441406 L 22.777344 18.441406 C 21.953125 18.441406 21.421875 19.304688 21.789062 20.042969 C 22.378906 21.21875 23.59375 22.027344 25 22.027344 Z M 25 22.027344 "/>
<path style=" stroke:none;fill-rule:nonzero;fill:rgb(0%,0%,0%);fill-opacity:1;" d="M 8.695312 20.617188 C 8.695312 23.613281 11.132812 26.050781 14.132812 26.050781 C 17.128906 26.050781 19.566406 23.613281 19.566406 20.617188 C 19.566406 17.617188 17.128906 15.179688 14.132812 15.179688 C 11.132812 15.179688 8.695312 17.617188 8.695312 20.617188 Z M 17.390625 20.617188 C 17.390625 22.414062 15.929688 23.875 14.132812 23.875 C 12.335938 23.875 10.867188 22.414062 10.867188 20.617188 C 10.867188 18.820312 12.335938 17.351562 14.132812 17.351562 C 15.929688 17.351562 17.390625 18.820312 17.390625 20.617188 Z M 17.390625 20.617188 "/>
<path style=" stroke:none;fill-rule:nonzero;fill:rgb(0%,0%,0%);fill-opacity:1;" d="M 30.433594 20.617188 C 30.433594 23.613281 32.871094 26.050781 35.867188 26.050781 C 38.867188 26.050781 41.304688 23.613281 41.304688 20.617188 C 41.304688 17.617188 38.867188 15.179688 35.867188 15.179688 C 32.871094 15.179688 30.433594 17.617188 30.433594 20.617188 Z M 39.132812 20.617188 C 39.132812 22.414062 37.664062 23.875 35.867188 23.875 C 34.070312 23.875 32.609375 22.414062 32.609375 20.617188 C 32.609375 18.820312 34.070312 17.351562 35.867188 17.351562 C 37.664062 17.351562 39.132812 18.820312 39.132812 20.617188 Z M 39.132812 20.617188 "/>
<path style=" stroke:none;fill-rule:nonzero;fill:rgb(0%,0%,0%);fill-opacity:1;" d="M 27.222656 17.351562 L 22.777344 17.351562 C 22.011719 17.351562 21.3125 17.742188 20.914062 18.394531 C 20.511719 19.042969 20.472656 19.84375 20.816406 20.527344 C 21.617188 22.125 23.21875 23.117188 25 23.117188 C 26.78125 23.117188 28.382812 22.125 29.183594 20.527344 C 29.527344 19.84375 29.488281 19.042969 29.085938 18.394531 C 28.6875 17.742188 27.988281 17.351562 27.222656 17.351562 Z M 25 20.941406 C 24.046875 20.941406 23.1875 20.410156 22.757812 19.546875 C 22.757812 19.539062 22.765625 19.53125 22.777344 19.527344 L 27.230469 19.527344 C 27.234375 19.53125 27.242188 19.539062 27.234375 19.554688 C 26.8125 20.410156 25.953125 20.941406 25 20.941406 Z M 25 20.941406 "/>
<path style=" stroke:none;fill-rule:nonzero;fill:rgb(0%,0%,0%);fill-opacity:1;" d="M 49.8125 27.636719 C 49.773438 27.578125 49.730469 27.519531 49.683594 27.46875 C 49.632812 27.421875 49.574219 27.375 49.515625 27.335938 C 49.457031 27.296875 49.394531 27.265625 49.332031 27.234375 C 49.261719 27.207031 49.195312 27.1875 49.125 27.171875 C 48.984375 27.144531 48.84375 27.144531 48.703125 27.171875 C 48.632812 27.1875 48.5625 27.207031 48.496094 27.234375 C 48.433594 27.265625 48.367188 27.296875 48.3125 27.335938 C 48.25 27.375 48.195312 27.421875 48.144531 27.46875 C 48.09375 27.519531 48.046875 27.578125 48.007812 27.636719 C 47.96875 27.695312 47.933594 27.757812 47.910156 27.820312 C 47.882812 27.890625 47.859375 27.960938 47.847656 28.027344 C 47.832031 28.09375 47.828125 28.167969 47.828125 28.238281 C 47.828125 28.3125 47.832031 28.382812 47.847656 28.453125 C 47.859375 28.519531 47.882812 28.589844 47.910156 28.65625 C 47.933594 28.71875 47.96875 28.785156 48.007812 28.84375 C 48.046875 28.902344 48.09375 28.960938 48.144531 29.007812 C 48.195312 29.058594 48.25 29.101562 48.3125 29.144531 C 48.367188 29.183594 48.433594 29.21875 48.496094 29.242188 C 48.5625 29.273438 48.632812 29.292969 48.703125 29.304688 C 48.769531 29.320312 48.84375 29.328125 48.910156 29.328125 C 48.984375 29.328125 49.058594 29.320312 49.125 29.304688 C 49.195312 29.292969 49.261719 29.273438 49.332031 29.242188 C 49.394531 29.21875 49.457031 29.183594 49.515625 29.144531 C 49.574219 29.101562 49.628906 29.058594 49.683594 29.007812 C 49.730469 28.960938 49.773438 28.902344 49.8125 28.84375 C 49.851562 28.785156 49.886719 28.71875 49.917969 28.65625 C 49.941406 28.589844 49.964844 28.519531 49.980469 28.453125 C 49.992188 28.382812 50 28.3125 50 28.238281 C 50 28.167969 49.992188 28.09375 49.980469 28.027344 C 49.964844 27.960938 49.941406 27.890625 49.917969 27.820312 C 49.886719 27.757812 49.851562 27.695312 49.8125 27.636719 Z M 49.8125 27.636719 "/>
<path style=" stroke:none;fill-rule:nonzero;fill:rgb(0%,0%,0%);fill-opacity:1;" d="M 47.304688 17.265625 L 37.359375 7.324219 C 30.546875 0.507812 19.457031 0.507812 12.640625 7.324219 L 2.695312 17.265625 C 0.957031 19.003906 0 21.320312 0 23.773438 L 0 33.65625 C 0 35.453125 1.464844 36.917969 3.261719 36.917969 C 3.640625 36.917969 4.007812 36.851562 4.34375 36.734375 L 4.34375 46.699219 C 4.34375 47.300781 4.835938 47.789062 5.433594 47.789062 C 6.035156 47.789062 6.523438 47.300781 6.523438 46.699219 L 6.523438 36.734375 C 6.859375 36.851562 7.226562 36.917969 7.609375 36.917969 C 7.988281 36.917969 8.355469 36.851562 8.695312 36.734375 L 8.695312 42.351562 C 8.695312 42.953125 9.179688 43.441406 9.78125 43.441406 C 10.382812 43.441406 10.867188 42.953125 10.867188 42.351562 L 10.867188 36.734375 C 11.210938 36.851562 11.578125 36.917969 11.957031 36.917969 C 12.339844 36.917969 12.703125 36.851562 13.042969 36.734375 L 13.042969 44.527344 C 13.042969 45.125 13.53125 45.617188 14.132812 45.617188 C 14.730469 45.617188 15.214844 45.125 15.214844 44.527344 L 15.214844 36.734375 C 15.554688 36.851562 15.921875 36.917969 16.304688 36.917969 C 16.683594 36.917969 17.050781 36.851562 17.390625 36.734375 L 17.390625 40.179688 C 17.390625 40.78125 17.875 41.265625 18.476562 41.265625 C 19.078125 41.265625 19.566406 40.78125 19.566406 40.179688 L 19.566406 36.734375 C 19.902344 36.851562 20.269531 36.917969 20.648438 36.917969 C 21.03125 36.917969 21.398438 36.851562 21.738281 36.734375 L 21.738281 42.351562 C 21.738281 42.953125 22.226562 43.441406 22.828125 43.441406 C 23.429688 43.441406 23.910156 42.953125 23.910156 42.351562 L 23.910156 36.734375 C 24.253906 36.851562 24.617188 36.917969 25 36.917969 C 25.382812 36.917969 25.746094 36.851562 26.085938 36.734375 L 26.085938 42.351562 C 26.085938 42.953125 26.570312 43.441406 27.171875 43.441406 C 27.773438 43.441406 28.261719 42.953125 28.261719 42.351562 L 28.261719 36.734375 C 28.597656 36.851562 28.964844 36.917969 29.34375 36.917969 C 29.726562 36.917969 30.09375 36.851562 30.433594 36.734375 L 30.433594 40.179688 C 30.433594 40.78125 30.917969 41.265625 31.519531 41.265625 C 32.117188 41.265625 32.609375 40.78125 32.609375 40.179688 L 32.609375 36.734375 C 32.949219 36.851562 33.316406 36.917969 33.695312 36.917969 C 34.078125 36.917969 34.445312 36.851562 34.78125 36.734375 L 34.78125 44.527344 C 34.78125 45.125 35.269531 45.617188 35.867188 45.617188 C 36.46875 45.617188 36.953125 45.125 36.953125 44.527344 L 36.953125 36.734375 C 37.296875 36.851562 37.660156 36.917969 38.042969 36.917969 C 38.421875 36.917969 38.789062 36.851562 39.132812 36.734375 L 39.132812 42.351562 C 39.132812 42.953125 39.613281 43.441406 40.214844 43.441406 C 40.816406 43.441406 41.304688 42.953125 41.304688 42.351562 L 41.304688 36.734375 C 41.640625 36.851562 42.007812 36.917969 42.386719 36.917969 C 42.769531 36.917969 43.132812 36.851562 43.476562 36.734375 L 43.476562 46.699219 C 43.476562 47.300781 43.964844 47.789062 44.566406 47.789062 C 45.164062 47.789062 45.648438 47.300781 45.648438 46.699219 L 45.648438 36.734375 C 45.992188 36.851562 46.359375 36.917969 46.738281 36.917969 C 48.535156 36.917969 50 35.453125 50 33.65625 L 50 31.484375 C 50 30.882812 49.511719 30.394531 48.910156 30.394531 C 48.3125 30.394531 47.820312 30.882812 47.820312 31.484375 L 47.820312 33.65625 C 47.820312 34.257812 47.339844 34.746094 46.738281 34.746094 C 46.136719 34.746094 45.648438 34.257812 45.648438 33.65625 C 45.648438 33.054688 45.164062 32.574219 44.566406 32.574219 C 43.964844 32.574219 43.476562 33.054688 43.476562 33.65625 C 43.476562 34.257812 42.988281 34.746094 42.386719 34.746094 C 41.792969 34.746094 41.304688 34.257812 41.304688 33.65625 C 41.304688 33.054688 40.816406 32.574219 40.214844 32.574219 C 39.613281 32.574219 39.132812 33.054688 39.132812 33.65625 C 39.132812 34.257812 38.640625 34.746094 38.042969 34.746094 C 37.441406 34.746094 36.953125 34.257812 36.953125 33.65625 C 36.953125 33.054688 36.46875 32.574219 35.867188 32.574219 C 35.269531 32.574219 34.78125 33.054688 34.78125 33.65625 C 34.78125 34.257812 34.292969 34.746094 33.695312 34.746094 C 33.09375 34.746094 32.609375 34.257812 32.609375 33.65625 C 32.609375 33.054688 32.117188 32.574219 31.519531 32.574219 C 30.917969 32.574219 30.433594 33.054688 30.433594 33.65625 C 30.433594 34.257812 29.945312 34.746094 29.34375 34.746094 C 28.746094 34.746094 28.261719 34.257812 28.261719 33.65625 C 28.261719 33.054688 27.773438 32.574219 27.171875 32.574219 C 26.570312 32.574219 26.085938 33.054688 26.085938 33.65625 C 26.085938 34.257812 25.601562 34.746094 25 34.746094 C 24.398438 34.746094 23.910156 34.257812 23.910156 33.65625 C 23.910156 33.054688 23.429688 32.574219 22.828125 32.574219 C 22.226562 32.574219 21.738281 33.054688 21.738281 33.65625 C 21.738281 34.257812 21.25 34.746094 20.648438 34.746094 C 20.054688 34.746094 19.566406 34.257812 19.566406 33.65625 C 19.566406 33.054688 19.078125 32.574219 18.476562 32.574219 C 17.875 32.574219 17.390625 33.054688 17.390625 33.65625 C 17.390625 34.257812 16.90625 34.746094 16.304688 34.746094 C 15.703125 34.746094 15.214844 34.257812 15.214844 33.65625 C 15.214844 33.054688 14.730469 32.574219 14.132812 32.574219 C 13.53125 32.574219 13.042969 33.054688 13.042969 33.65625 C 13.042969 34.257812 12.554688 34.746094 11.957031 34.746094 C 11.359375 34.746094 10.867188 34.257812 10.867188 33.65625 C 10.867188 33.054688 10.382812 32.574219 9.78125 32.574219 C 9.183594 32.574219 8.695312 33.054688 8.695312 33.65625 C 8.695312 34.257812 8.207031 34.746094 7.609375 34.746094 C 7.011719 34.746094 6.523438 34.257812 6.523438 33.65625 C 6.523438 33.054688 6.035156 32.574219 5.433594 32.574219 C 4.835938 32.574219 4.34375 33.054688 4.34375 33.65625 C 4.34375 34.257812 3.863281 34.746094 3.261719 34.746094 C 2.660156 34.746094 2.171875 34.257812 2.171875 33.65625 L 2.171875 23.773438 C 2.171875 21.898438 2.90625 20.132812 4.234375 18.804688 L 14.179688 8.863281 C 20.148438 2.890625 29.851562 2.890625 35.820312 8.863281 L 45.765625 18.804688 C 47.09375 20.132812 47.828125 21.898438 47.828125 23.773438 L 47.828125 24.996094 C 47.828125 25.59375 48.3125 26.085938 48.910156 26.085938 C 49.511719 26.085938 50 25.59375 50 24.996094 L 50 23.773438 C 50 21.320312 49.042969 19.003906 47.304688 17.265625 Z M 47.304688 17.265625 "/>
</g>
</svg>
