<?xml version="1.0" encoding="UTF-8"?>
<svg xmlns="http://www.w3.org/2000/svg" xmlns:xlink="http://www.w3.org/1999/xlink" width="50px" height="50px" viewBox="0 0 50 50" version="1.1">
<g id="surface1">
<path style=" stroke:none;fill-rule:nonzero;fill:rgb(92.54902%,95.686275%,96.862745%);fill-opacity:1;" d="M 17.34375 19.925781 C 17.34375 17.554688 15.480469 15.695312 13.113281 15.695312 C 10.746094 15.695312 8.882812 17.554688 8.882812 19.925781 C 8.882812 22.292969 10.746094 24.152344 13.113281 24.152344 C 15.480469 24.152344 17.34375 22.292969 17.34375 19.925781 Z M 41.03125 19.925781 C 41.03125 17.554688 39.171875 15.695312 36.800781 15.695312 C 34.433594 15.695312 32.570312 17.554688 32.570312 19.925781 C 32.570312 22.292969 34.433594 24.152344 36.800781 24.152344 C 39.171875 24.152344 41.03125 22.292969 41.03125 19.925781 Z M 13.28125 7.742188 C 15.90625 7.402344 20.8125 7.234375 24.957031 7.234375 C 29.101562 7.234375 34.347656 7.488281 36.632812 7.742188 C 41.203125 8.25 43.570312 8.925781 43.570312 8.925781 C 45.261719 9.601562 46.953125 10.871094 47.800781 12.308594 C 47.800781 12.308594 49.492188 14.761719 49.492188 20.769531 C 49.492188 26.777344 47.800781 29.230469 47.800781 29.230469 C 46.953125 30.582031 45.261719 32.023438 43.570312 32.613281 C 43.570312 32.613281 40.015625 33.628906 32.570312 34.050781 C 30.371094 34.222656 27.835938 34.304688 24.957031 34.304688 C 22.417969 34.304688 20.21875 34.222656 18.191406 34.136719 C 10.152344 33.714844 6.34375 32.613281 6.34375 32.613281 C 4.652344 31.9375 2.960938 30.667969 2.113281 29.230469 C 2.113281 29.230469 0.421875 26.691406 0.421875 20.769531 C 0.421875 14.847656 2.113281 12.308594 2.113281 12.308594 C 2.960938 11.039062 4.652344 9.433594 6.34375 8.925781 C 6.34375 8.925781 8.628906 8.25 13.28125 7.742188 Z M 13.28125 7.742188 "/>
<path style=" stroke:none;fill-rule:nonzero;fill:rgb(50.196078%,83.921569%,98.039216%);fill-opacity:1;" d="M 13.113281 15.695312 C 15.480469 15.695312 17.34375 17.554688 17.34375 19.925781 C 17.34375 22.292969 15.480469 24.152344 13.113281 24.152344 C 10.746094 24.152344 8.882812 22.292969 8.882812 19.925781 C 8.882812 17.554688 10.746094 15.695312 13.113281 15.695312 Z M 36.800781 15.695312 C 39.171875 15.695312 41.03125 17.554688 41.03125 19.925781 C 41.03125 22.292969 39.171875 24.152344 36.800781 24.152344 C 34.433594 24.152344 32.570312 22.292969 32.570312 19.925781 C 32.570312 17.554688 34.433594 15.695312 36.800781 15.695312 Z M 36.800781 15.695312 "/>
<path style=" stroke:none;fill-rule:nonzero;fill:rgb(66.666667%,69.411765%,72.941176%);fill-opacity:1;" d="M 36.800781 20.769531 C 37.308594 20.769531 37.648438 20.429688 37.648438 19.925781 C 37.648438 19.417969 37.308594 19.078125 36.800781 19.078125 C 36.292969 19.078125 35.957031 19.417969 35.957031 19.925781 C 35.957031 20.429688 36.292969 20.769531 36.800781 20.769531 Z M 13.113281 20.769531 C 13.621094 20.769531 13.960938 20.429688 13.960938 19.925781 C 13.960938 19.417969 13.621094 19.078125 13.113281 19.078125 C 12.605469 19.078125 12.265625 19.417969 12.265625 19.925781 C 12.265625 20.429688 12.605469 20.769531 13.113281 20.769531 Z M 13.113281 20.769531 "/>
<path style=" stroke:none;fill-rule:nonzero;fill:rgb(50.196078%,83.921569%,98.039216%);fill-opacity:1;" d="M 37.648438 0.464844 C 38.578125 0.464844 39.339844 1.226562 39.339844 2.15625 C 39.339844 3.089844 38.578125 3.847656 37.648438 3.847656 C 37.5625 3.847656 37.480469 3.847656 37.308594 3.847656 C 36.546875 3.679688 35.957031 3.003906 35.957031 2.15625 C 35.957031 1.226562 36.71875 0.464844 37.648438 0.464844 Z M 12.265625 0.464844 C 13.199219 0.464844 13.960938 1.226562 13.960938 2.15625 C 13.960938 3.003906 13.367188 3.679688 12.605469 3.847656 C 12.519531 3.847656 12.4375 3.847656 12.265625 3.847656 C 11.335938 3.847656 10.574219 3.089844 10.574219 2.15625 C 10.574219 1.226562 11.335938 0.464844 12.265625 0.464844 Z M 12.265625 0.464844 "/>
<path style=" stroke:none;fill-rule:nonzero;fill:rgb(66.666667%,69.411765%,72.941176%);fill-opacity:1;" d="M 18.191406 46.152344 L 18.191406 34.136719 C 20.21875 34.222656 22.417969 34.304688 24.957031 34.304688 C 27.835938 34.304688 30.371094 34.222656 32.570312 34.050781 L 32.570312 48.6875 C 32.570312 49.113281 32.234375 49.535156 31.726562 49.535156 L 19.035156 49.535156 C 18.527344 49.535156 18.191406 49.113281 18.191406 48.6875 Z M 18.191406 46.152344 "/>
<path style=" stroke:none;fill-rule:nonzero;fill:rgb(31.764706%,33.72549%,37.254902%);fill-opacity:1;" d="M 31.726562 49.957031 L 19.035156 49.957031 C 18.359375 49.957031 17.765625 49.367188 17.765625 48.6875 L 17.765625 37.351562 C 17.765625 37.097656 17.9375 36.929688 18.191406 36.929688 C 18.445312 36.929688 18.613281 37.097656 18.613281 37.351562 L 18.613281 38.960938 L 29.1875 38.960938 C 29.441406 38.960938 29.609375 39.128906 29.609375 39.382812 C 29.609375 39.636719 29.441406 39.804688 29.1875 39.804688 L 18.613281 39.804688 L 18.613281 42.34375 L 29.1875 42.34375 C 29.441406 42.34375 29.609375 42.511719 29.609375 42.765625 C 29.609375 43.019531 29.441406 43.191406 29.1875 43.191406 L 18.613281 43.191406 L 18.613281 45.726562 L 29.1875 45.726562 C 29.441406 45.726562 29.609375 45.898438 29.609375 46.152344 C 29.609375 46.40625 29.441406 46.574219 29.1875 46.574219 L 18.613281 46.574219 L 18.613281 48.6875 C 18.613281 48.941406 18.78125 49.113281 19.035156 49.113281 L 31.726562 49.113281 C 31.980469 49.113281 32.148438 48.941406 32.148438 48.6875 L 32.148438 37.4375 C 32.148438 37.183594 32.316406 37.011719 32.570312 37.011719 C 32.824219 37.011719 32.996094 37.183594 32.996094 37.4375 L 32.996094 48.6875 C 32.996094 49.367188 32.402344 49.957031 31.726562 49.957031 Z M 24.957031 34.730469 C 12.351562 34.730469 6.515625 33.121094 6.261719 33.039062 C 4.398438 32.359375 2.707031 31.007812 1.777344 29.484375 C 1.691406 29.398438 0 26.777344 0 20.769531 C 0 14.761719 1.691406 12.226562 1.777344 12.054688 C 2.707031 10.703125 4.398438 9.09375 6.261719 8.503906 C 6.34375 8.503906 8.542969 7.824219 12.859375 7.316406 L 12.265625 4.273438 C 11.167969 4.273438 10.238281 3.339844 10.238281 2.15625 C 10.238281 0.972656 11.167969 0.0429688 12.351562 0.0429688 C 13.535156 0.0429688 14.46875 0.972656 14.46875 2.15625 C 14.46875 3.089844 13.875 3.847656 13.113281 4.101562 L 13.789062 7.65625 C 13.789062 7.824219 13.789062 7.910156 13.707031 8.078125 C 13.621094 8.164062 13.535156 8.164062 13.367188 8.164062 C 8.882812 8.671875 6.597656 9.347656 6.597656 9.347656 C 4.992188 9.855469 3.382812 11.378906 2.621094 12.5625 C 2.621094 12.5625 1.015625 15.101562 1.015625 20.769531 C 1.015625 26.4375 2.621094 28.976562 2.621094 28.976562 C 3.46875 30.328125 4.992188 31.597656 6.683594 32.191406 C 6.683594 32.191406 12.691406 33.882812 25.128906 33.882812 C 37.5625 33.882812 43.570312 32.191406 43.65625 32.191406 C 45.261719 31.597656 46.871094 30.160156 47.632812 28.976562 C 47.632812 28.976562 49.238281 26.523438 49.238281 20.769531 C 49.238281 15.015625 47.632812 12.5625 47.632812 12.5625 C 46.871094 11.210938 45.179688 9.941406 43.570312 9.347656 C 43.570312 9.347656 41.203125 8.671875 36.800781 8.25 C 36.632812 8.25 36.546875 8.164062 36.464844 7.996094 C 36.464844 7.910156 36.378906 7.824219 36.378906 7.824219 L 36.378906 7.742188 L 36.972656 4.1875 C 36.210938 3.847656 35.617188 3.089844 35.617188 2.242188 C 35.617188 1.058594 36.546875 0.125 37.734375 0.125 C 38.917969 0.125 39.847656 1.058594 39.847656 2.242188 C 39.847656 3.425781 38.917969 4.355469 37.816406 4.355469 L 37.226562 7.488281 C 41.457031 7.996094 43.65625 8.585938 43.738281 8.585938 C 45.601562 9.265625 47.292969 10.703125 48.222656 12.140625 C 48.308594 12.226562 50 14.761719 50 20.855469 C 50 26.859375 48.308594 29.484375 48.222656 29.570312 C 47.378906 30.921875 45.683594 32.53125 43.738281 33.121094 C 43.402344 33.121094 37.5625 34.730469 24.957031 34.730469 Z M 37.648438 0.886719 C 36.972656 0.886719 36.378906 1.480469 36.378906 2.15625 C 36.378906 2.835938 36.972656 3.425781 37.648438 3.425781 C 38.324219 3.425781 38.917969 2.835938 38.917969 2.15625 C 38.917969 1.480469 38.324219 0.886719 37.648438 0.886719 Z M 12.265625 0.886719 C 11.589844 0.886719 11 1.480469 11 2.15625 C 11 2.835938 11.589844 3.425781 12.265625 3.425781 C 12.945312 3.425781 13.535156 2.835938 13.535156 2.15625 C 13.535156 1.480469 12.945312 0.886719 12.265625 0.886719 Z M 27.496094 27.960938 L 22.417969 27.960938 C 22.164062 27.960938 21.996094 27.792969 21.996094 27.539062 C 21.996094 27.285156 22.164062 27.113281 22.417969 27.113281 L 27.496094 27.113281 C 27.75 27.113281 27.917969 27.285156 27.917969 27.539062 C 27.917969 27.792969 27.75 27.960938 27.496094 27.960938 Z M 36.800781 24.578125 C 34.265625 24.578125 32.148438 22.460938 32.148438 19.925781 C 32.148438 17.386719 34.265625 15.269531 36.800781 15.269531 C 39.339844 15.269531 41.457031 17.386719 41.457031 19.925781 C 41.457031 22.460938 39.339844 24.578125 36.800781 24.578125 Z M 36.800781 16.117188 C 34.6875 16.117188 32.996094 17.808594 32.996094 19.925781 C 32.996094 22.039062 34.6875 23.730469 36.800781 23.730469 C 38.917969 23.730469 40.609375 22.039062 40.609375 19.925781 C 40.609375 17.808594 38.917969 16.117188 36.800781 16.117188 Z M 13.113281 24.578125 C 10.574219 24.578125 8.460938 22.460938 8.460938 19.925781 C 8.460938 17.386719 10.574219 15.269531 13.113281 15.269531 C 15.652344 15.269531 17.765625 17.386719 17.765625 19.925781 C 17.765625 22.460938 15.652344 24.578125 13.113281 24.578125 Z M 13.113281 16.117188 C 11 16.117188 9.304688 17.808594 9.304688 19.925781 C 9.304688 22.039062 11 23.730469 13.113281 23.730469 C 15.226562 23.730469 16.921875 22.039062 16.921875 19.925781 C 16.921875 17.808594 15.226562 16.117188 13.113281 16.117188 Z M 13.113281 21.191406 C 12.4375 21.191406 11.84375 20.601562 11.84375 19.925781 C 11.84375 19.246094 12.4375 18.65625 13.113281 18.65625 C 13.789062 18.65625 14.382812 19.246094 14.382812 19.925781 C 14.382812 20.601562 13.789062 21.191406 13.113281 21.191406 Z M 13.113281 19.5 C 12.859375 19.5 12.691406 19.671875 12.691406 19.925781 C 12.691406 20.175781 12.859375 20.347656 13.113281 20.347656 C 13.367188 20.347656 13.535156 20.175781 13.535156 19.925781 C 13.535156 19.671875 13.367188 19.5 13.113281 19.5 Z M 36.800781 21.191406 C 36.125 21.191406 35.53125 20.601562 35.53125 19.925781 C 35.53125 19.246094 36.125 18.65625 36.800781 18.65625 C 37.480469 18.65625 38.070312 19.246094 38.070312 19.925781 C 38.070312 20.601562 37.480469 21.191406 36.800781 21.191406 Z M 36.800781 19.5 C 36.546875 19.5 36.378906 19.671875 36.378906 19.925781 C 36.378906 20.175781 36.546875 20.347656 36.800781 20.347656 C 37.054688 20.347656 37.226562 20.175781 37.226562 19.925781 C 37.226562 19.671875 37.054688 19.5 36.800781 19.5 Z M 16.496094 7.910156 C 16.242188 7.910156 16.074219 7.742188 16.074219 7.488281 C 16.074219 7.234375 16.242188 7.0625 16.496094 7.0625 C 19.121094 6.894531 21.996094 6.808594 24.957031 6.808594 C 27.917969 6.808594 30.796875 6.894531 33.417969 7.0625 C 33.671875 7.0625 33.839844 7.316406 33.839844 7.488281 C 33.839844 7.742188 33.671875 7.910156 33.417969 7.910156 C 30.796875 7.742188 28.003906 7.65625 25.042969 7.65625 C 21.996094 7.65625 19.121094 7.742188 16.496094 7.910156 Z M 16.496094 7.910156 "/>
</g>
</svg>
