<?xml version="1.0" encoding="UTF-8"?>
<svg xmlns="http://www.w3.org/2000/svg" xmlns:xlink="http://www.w3.org/1999/xlink" width="50px" height="px" viewBox="0 0 50 50" version="1.1">
<g id="surface1">
<path style=" stroke:none;fill-rule:nonzero;fill:rgb(29.411765%,57.254902%,36.862745%);fill-opacity:1;" d="M 22.792969 36.761719 L 18.382812 36.761719 L 18.382812 14.707031 C 18.382812 12.273438 16.402344 10.292969 13.96875 10.292969 L 13.96875 5.882812 C 18.835938 5.882812 22.792969 9.839844 22.792969 14.707031 Z M 22.792969 36.761719 "/>
<path style=" stroke:none;fill-rule:nonzero;fill:rgb(19.607843%,38.431373%,24.705882%);fill-opacity:1;" d="M 31.617188 36.761719 L 27.207031 36.761719 L 27.207031 14.707031 C 27.207031 9.839844 31.164062 5.882812 36.03125 5.882812 L 36.03125 10.292969 C 33.597656 10.292969 31.617188 12.273438 31.617188 14.707031 Z M 31.617188 36.761719 "/>
<path style=" stroke:none;fill-rule:nonzero;fill:rgb(56.862745%,86.27451%,35.294118%);fill-opacity:1;" d="M 22.792969 6.617188 C 22.792969 10.273438 19.828125 13.238281 16.175781 13.238281 C 12.519531 13.238281 9.5625 10.273438 9.5625 6.617188 C 9.5625 2.964844 12.519531 0 16.175781 0 C 19.828125 0 22.792969 2.964844 22.792969 6.617188 Z M 22.792969 6.617188 "/>
<path style=" stroke:none;fill-rule:nonzero;fill:rgb(23.529412%,36.470588%,46.27451%);fill-opacity:1;" d="M 18.382812 6.617188 C 18.382812 7.835938 17.390625 8.824219 16.175781 8.824219 C 14.957031 8.824219 13.96875 7.835938 13.96875 6.617188 C 13.96875 5.398438 14.957031 4.414062 16.175781 4.414062 C 17.390625 4.414062 18.382812 5.398438 18.382812 6.617188 Z M 18.382812 6.617188 "/>
<path style=" stroke:none;fill-rule:nonzero;fill:rgb(39.215686%,76.470588%,49.019608%);fill-opacity:1;" d="M 40.4375 6.617188 C 40.4375 10.273438 37.480469 13.238281 33.824219 13.238281 C 30.171875 13.238281 27.207031 10.273438 27.207031 6.617188 C 27.207031 2.964844 30.171875 0 33.824219 0 C 37.480469 0 40.4375 2.964844 40.4375 6.617188 Z M 40.4375 6.617188 "/>
<path style=" stroke:none;fill-rule:nonzero;fill:rgb(11.764706%,18.039216%,23.137255%);fill-opacity:1;" d="M 36.03125 6.617188 C 36.03125 7.835938 35.042969 8.824219 33.824219 8.824219 C 32.609375 8.824219 31.617188 7.835938 31.617188 6.617188 C 31.617188 5.398438 32.609375 4.414062 33.824219 4.414062 C 35.042969 4.414062 36.03125 5.398438 36.03125 6.617188 Z M 36.03125 6.617188 "/>
<path style=" stroke:none;fill-rule:nonzero;fill:rgb(56.862745%,86.27451%,35.294118%);fill-opacity:1;" d="M 37.5 45.585938 C 36.28125 45.585938 35.292969 44.601562 35.292969 43.382812 L 35.292969 27.9375 C 35.292969 22.257812 30.683594 17.648438 25 17.648438 C 19.316406 17.648438 14.707031 22.257812 14.707031 27.9375 L 14.707031 43.382812 C 14.707031 44.601562 13.714844 45.585938 12.5 45.585938 C 11.285156 45.585938 8.824219 45.585938 8.824219 45.585938 L 8.824219 50 L 41.175781 50 L 41.175781 45.585938 C 41.175781 45.585938 38.714844 45.585938 37.5 45.585938 Z M 37.5 45.585938 "/>
<path style=" stroke:none;fill-rule:nonzero;fill:rgb(39.215686%,76.470588%,49.019608%);fill-opacity:1;" d="M 37.5 45.585938 C 36.28125 45.585938 35.292969 44.601562 35.292969 43.382812 L 35.292969 27.9375 C 35.292969 22.257812 30.683594 17.648438 25 17.648438 L 25 50 L 41.175781 50 L 41.175781 45.585938 C 41.175781 45.585938 38.714844 45.585938 37.5 45.585938 Z M 37.5 45.585938 "/>
<path style=" stroke:none;fill-rule:nonzero;fill:rgb(23.529412%,36.470588%,46.27451%);fill-opacity:1;" d="M 20.585938 26.46875 C 20.585938 28.90625 22.5625 30.882812 25 30.882812 C 27.4375 30.882812 29.414062 28.90625 29.414062 26.46875 Z M 20.585938 26.46875 "/>
<path style=" stroke:none;fill-rule:nonzero;fill:rgb(11.764706%,18.039216%,23.137255%);fill-opacity:1;" d="M 25 26.46875 L 25 30.882812 C 27.4375 30.882812 29.414062 28.90625 29.414062 26.46875 Z M 25 26.46875 "/>
</g>
</svg>
