<?xml version="1.0" encoding="UTF-8"?>
<svg xmlns="http://www.w3.org/2000/svg" xmlns:xlink="http://www.w3.org/1999/xlink" width="50px" height="px" viewBox="0 0 50 50" version="1.1">
<g id="surface1">
<path style=" stroke:none;fill-rule:nonzero;fill:rgb(78.431373%,95.686275%,87.058824%);fill-opacity:1;" d="M 48.910156 25 C 48.910156 38.203125 31.480469 48.910156 25 48.910156 C 18.519531 48.910156 1.089844 38.203125 1.089844 25 C 1.089844 11.796875 11.796875 1.089844 25 1.089844 C 38.203125 1.089844 48.910156 11.796875 48.910156 25 Z M 48.910156 25 "/>
<path style=" stroke:none;fill-rule:nonzero;fill:rgb(52.941176%,87.45098%,83.921569%);fill-opacity:1;" d="M 41.4375 29.449219 C 44.390625 26.492188 44.921875 22.03125 43.027344 18.53125 C 39.527344 16.636719 35.0625 17.167969 32.109375 20.121094 C 29.148438 23.082031 28.625 27.542969 30.515625 31.046875 C 34.015625 32.933594 38.476562 32.40625 41.4375 29.449219 Z M 41.4375 29.449219 "/>
<path style=" stroke:none;fill-rule:nonzero;fill:rgb(52.941176%,87.45098%,83.921569%);fill-opacity:1;" d="M 8.5625 29.449219 C 5.609375 26.492188 5.078125 22.03125 6.972656 18.53125 C 10.472656 16.636719 14.9375 17.167969 17.890625 20.121094 C 20.851562 23.082031 21.375 27.542969 19.484375 31.046875 C 15.984375 32.933594 11.523438 32.40625 8.5625 29.449219 Z M 8.5625 29.449219 "/>
<path style=" stroke:none;fill-rule:nonzero;fill:rgb(52.941176%,87.45098%,83.921569%);fill-opacity:1;" d="M 29.40625 11.933594 C 29.40625 14.367188 27.429688 16.335938 25 16.335938 C 22.570312 16.335938 20.59375 14.367188 20.59375 11.933594 C 20.59375 9.5 22.570312 7.53125 25 7.53125 C 27.429688 7.53125 29.40625 9.5 29.40625 11.933594 Z M 29.40625 11.933594 "/>
<path style=" stroke:none;fill-rule:nonzero;fill:rgb(29.019608%,49.019608%,72.941176%);fill-opacity:1;" d="M 27.34375 37.035156 L 17.539062 37.035156 C 17.539062 41.25 20.953125 44.664062 25.160156 44.664062 C 29.375 44.664062 32.789062 41.25 32.789062 37.035156 Z M 27.34375 37.035156 "/>
<path style=" stroke:none;fill-rule:nonzero;fill:rgb(0%,0%,0%);fill-opacity:1;" d="M 42.675781 7.324219 C 37.953125 2.601562 31.679688 0 25 0 C 18.320312 0 12.046875 2.601562 7.324219 7.324219 C 2.601562 12.046875 0 18.320312 0 25 C 0 33.210938 6.210938 39.644531 9.917969 42.742188 C 15.019531 47.015625 21.21875 50 25 50 C 28.78125 50 34.980469 47.015625 40.082031 42.742188 C 43.789062 39.644531 50 33.210938 50 25 C 50 18.320312 47.398438 12.046875 42.675781 7.324219 Z M 38.6875 41.074219 C 33.453125 45.453125 27.730469 47.820312 25 47.820312 C 22.269531 47.820312 16.546875 45.453125 11.3125 41.074219 C 7.898438 38.21875 2.179688 32.328125 2.179688 25 C 2.179688 12.417969 12.417969 2.179688 25 2.179688 C 37.582031 2.179688 47.820312 12.417969 47.820312 25 C 47.820312 32.328125 42.101562 38.21875 38.6875 41.074219 Z M 38.6875 41.074219 "/>
<path style=" stroke:none;fill-rule:nonzero;fill:rgb(0%,0%,0%);fill-opacity:1;" d="M 43.984375 18.011719 C 43.886719 17.828125 43.730469 17.675781 43.546875 17.574219 C 41.632812 16.539062 39.378906 16.132812 37.21875 16.429688 C 34.976562 16.738281 32.945312 17.75 31.335938 19.355469 C 29.734375 20.957031 28.726562 22.988281 28.414062 25.230469 C 28.117188 27.398438 28.519531 29.648438 29.554688 31.5625 C 29.65625 31.75 29.808594 31.898438 29.996094 32 C 31.5 32.8125 33.210938 33.242188 34.925781 33.242188 C 35.394531 33.242188 35.863281 33.207031 36.328125 33.144531 C 38.570312 32.835938 40.601562 31.820312 42.203125 30.21875 C 43.808594 28.617188 44.820312 26.582031 45.125 24.339844 C 45.429688 22.179688 45.019531 19.925781 43.984375 18.011719 Z M 40.664062 28.679688 C 38.210938 31.128906 34.414062 31.75 31.324219 30.234375 C 29.808594 27.144531 30.429688 23.34375 32.882812 20.894531 C 35.332031 18.441406 39.125 17.828125 42.21875 19.339844 C 43.730469 22.429688 43.117188 26.230469 40.664062 28.679688 Z M 40.664062 28.679688 "/>
<path style=" stroke:none;fill-rule:nonzero;fill:rgb(0%,0%,0%);fill-opacity:1;" d="M 20.445312 31.5625 C 21.480469 29.648438 21.882812 27.398438 21.585938 25.230469 C 21.273438 22.988281 20.265625 20.957031 18.664062 19.355469 C 17.054688 17.75 15.023438 16.738281 12.78125 16.429688 C 10.617188 16.132812 8.367188 16.539062 6.453125 17.574219 C 6.269531 17.675781 6.113281 17.828125 6.015625 18.011719 C 4.980469 19.925781 4.570312 22.179688 4.875 24.339844 C 5.179688 26.582031 6.191406 28.617188 7.796875 30.21875 C 9.398438 31.820312 11.429688 32.835938 13.671875 33.144531 C 14.136719 33.207031 14.605469 33.242188 15.074219 33.242188 C 16.789062 33.242188 18.5 32.816406 20.003906 32 C 20.191406 31.898438 20.34375 31.75 20.445312 31.5625 Z M 18.675781 30.234375 C 15.582031 31.75 11.789062 31.128906 9.335938 28.679688 C 6.882812 26.230469 6.269531 22.429688 7.78125 19.339844 C 10.875 17.828125 14.667969 18.441406 17.117188 20.894531 C 19.570312 23.34375 20.191406 27.144531 18.675781 30.234375 Z M 18.675781 30.234375 "/>
<path style=" stroke:none;fill-rule:nonzero;fill:rgb(0%,0%,0%);fill-opacity:1;" d="M 24.570312 36.132812 C 24.511719 36.09375 24.449219 36.058594 24.378906 36.03125 C 24.316406 36.007812 24.25 35.980469 24.179688 35.972656 C 23.824219 35.898438 23.445312 36.015625 23.195312 36.265625 C 23.144531 36.320312 23.101562 36.371094 23.0625 36.429688 C 23.015625 36.488281 22.988281 36.554688 22.960938 36.621094 C 22.933594 36.683594 22.910156 36.753906 22.894531 36.828125 C 22.886719 36.894531 22.875 36.96875 22.875 37.035156 C 22.875 37.109375 22.886719 37.179688 22.894531 37.25 C 22.910156 37.320312 22.933594 37.386719 22.960938 37.457031 C 22.988281 37.519531 23.015625 37.582031 23.0625 37.640625 C 23.101562 37.699219 23.144531 37.757812 23.195312 37.808594 C 23.398438 38.007812 23.675781 38.125 23.964844 38.125 C 24.039062 38.125 24.105469 38.121094 24.179688 38.105469 C 24.25 38.089844 24.316406 38.070312 24.378906 38.042969 C 24.449219 38.011719 24.511719 37.984375 24.570312 37.945312 C 24.628906 37.90625 24.683594 37.855469 24.734375 37.808594 C 24.9375 37.601562 25.054688 37.324219 25.054688 37.035156 C 25.054688 36.753906 24.9375 36.46875 24.734375 36.265625 C 24.6875 36.214844 24.628906 36.171875 24.570312 36.132812 Z M 24.570312 36.132812 "/>
<path style=" stroke:none;fill-rule:nonzero;fill:rgb(0%,0%,0%);fill-opacity:1;" d="M 32.679688 35.945312 L 27.230469 35.945312 C 26.632812 35.945312 26.140625 36.4375 26.140625 37.035156 C 26.140625 37.636719 26.632812 38.125 27.230469 38.125 L 31.5 38.125 C 30.980469 41.214844 28.285156 43.574219 25.054688 43.574219 C 21.820312 43.574219 19.132812 41.214844 18.609375 38.125 L 20.699219 38.125 C 21.296875 38.125 21.789062 37.636719 21.789062 37.035156 C 21.789062 36.4375 21.296875 35.945312 20.699219 35.945312 L 17.429688 35.945312 C 16.828125 35.945312 16.335938 36.4375 16.335938 37.035156 C 16.335938 41.839844 20.25 45.75 25.054688 45.75 C 29.859375 45.75 33.769531 41.839844 33.769531 37.035156 C 33.769531 36.4375 33.28125 35.945312 32.679688 35.945312 Z M 32.679688 35.945312 "/>
<path style=" stroke:none;fill-rule:nonzero;fill:rgb(0%,0%,0%);fill-opacity:1;" d="M 25 17.429688 C 28.03125 17.429688 30.492188 14.964844 30.492188 11.933594 C 30.492188 8.902344 28.03125 6.441406 25 6.441406 C 21.96875 6.441406 19.507812 8.902344 19.507812 11.933594 C 19.507812 14.964844 21.96875 17.429688 25 17.429688 Z M 25 8.617188 C 26.832031 8.617188 28.316406 10.101562 28.316406 11.933594 C 28.316406 13.765625 26.832031 15.25 25 15.25 C 23.167969 15.25 21.683594 13.765625 21.683594 11.933594 C 21.683594 10.101562 23.167969 8.617188 25 8.617188 Z M 25 8.617188 "/>
</g>
</svg>
