<?xml version="1.0" encoding="UTF-8"?>
<svg xmlns="http://www.w3.org/2000/svg" xmlns:xlink="http://www.w3.org/1999/xlink" width="50px" height="px" viewBox="0 0 50 50" version="1.1">
<g id="surface1">
<path style=" stroke:none;fill-rule:nonzero;fill:rgb(29.019608%,49.019608%,72.941176%);fill-opacity:1;" d="M 25 44.566406 C 19 44.566406 14.132812 39.695312 14.132812 33.695312 L 14.132812 11.957031 C 14.132812 5.953125 19 1.089844 25 1.089844 C 31 1.089844 35.867188 5.953125 35.867188 11.957031 L 35.867188 33.695312 C 35.867188 39.695312 31 44.566406 25 44.566406 Z M 25 44.566406 "/>
<path style=" stroke:none;fill-rule:nonzero;fill:rgb(78.431373%,95.686275%,87.058824%);fill-opacity:1;" d="M 29.34375 14.132812 C 29.34375 16.53125 27.402344 18.476562 25 18.476562 C 22.597656 18.476562 20.65625 16.53125 20.65625 14.132812 C 20.65625 11.726562 22.597656 9.78125 25 9.78125 C 27.402344 9.78125 29.34375 11.726562 29.34375 14.132812 Z M 29.34375 14.132812 "/>
<path style=" stroke:none;fill-rule:nonzero;fill:rgb(52.941176%,87.45098%,83.921569%);fill-opacity:1;" d="M 27.210938 27.171875 L 22.789062 27.171875 C 21.609375 27.171875 20.65625 26.214844 20.65625 25.035156 L 20.65625 24.003906 C 20.65625 23.355469 21.179688 22.828125 21.832031 22.828125 L 28.167969 22.828125 C 28.820312 22.828125 29.34375 23.355469 29.34375 24.003906 L 29.34375 25.035156 C 29.34375 26.214844 28.390625 27.171875 27.210938 27.171875 Z M 27.210938 27.171875 "/>
<path style=" stroke:none;fill-rule:nonzero;fill:rgb(0%,0%,0%);fill-opacity:1;" d="M 43.558594 9.164062 C 43.589844 9.234375 43.625 9.296875 43.664062 9.355469 C 43.703125 9.414062 43.746094 9.46875 43.796875 9.515625 C 43.847656 9.570312 43.902344 9.613281 43.960938 9.652344 C 44.019531 9.691406 44.082031 9.726562 44.148438 9.75 C 44.214844 9.78125 44.28125 9.804688 44.355469 9.8125 C 44.421875 9.828125 44.492188 9.839844 44.566406 9.839844 C 44.632812 9.839844 44.707031 9.828125 44.773438 9.8125 C 44.847656 9.800781 44.917969 9.78125 44.980469 9.75 C 45.046875 9.726562 45.109375 9.691406 45.164062 9.652344 C 45.230469 9.613281 45.28125 9.570312 45.332031 9.515625 C 45.386719 9.46875 45.429688 9.414062 45.46875 9.355469 C 45.507812 9.296875 45.542969 9.234375 45.566406 9.164062 C 45.59375 9.101562 45.617188 9.03125 45.628906 8.960938 C 45.644531 8.890625 45.65625 8.820312 45.65625 8.75 C 45.65625 8.679688 45.644531 8.609375 45.628906 8.539062 C 45.617188 8.46875 45.59375 8.398438 45.566406 8.335938 C 45.542969 8.265625 45.507812 8.203125 45.46875 8.144531 C 45.429688 8.085938 45.386719 8.03125 45.332031 7.984375 C 45.28125 7.929688 45.230469 7.886719 45.164062 7.847656 C 45.109375 7.808594 45.046875 7.773438 44.980469 7.75 C 44.917969 7.71875 44.847656 7.699219 44.773438 7.6875 C 44.640625 7.65625 44.492188 7.65625 44.355469 7.6875 C 44.28125 7.699219 44.214844 7.71875 44.148438 7.75 C 44.082031 7.773438 44.019531 7.808594 43.960938 7.847656 C 43.902344 7.886719 43.847656 7.929688 43.796875 7.984375 C 43.746094 8.03125 43.703125 8.085938 43.664062 8.144531 C 43.625 8.203125 43.589844 8.265625 43.558594 8.335938 C 43.535156 8.398438 43.511719 8.46875 43.5 8.539062 C 43.484375 8.609375 43.476562 8.679688 43.476562 8.75 C 43.476562 8.820312 43.484375 8.890625 43.5 8.960938 C 43.511719 9.03125 43.535156 9.101562 43.558594 9.164062 Z M 43.558594 9.164062 "/>
<path style=" stroke:none;fill-rule:nonzero;fill:rgb(0%,0%,0%);fill-opacity:1;" d="M 4.433594 9.164062 C 4.457031 9.234375 4.492188 9.296875 4.53125 9.355469 C 4.570312 9.414062 4.613281 9.46875 4.667969 9.515625 C 4.71875 9.570312 4.769531 9.613281 4.835938 9.652344 C 4.890625 9.691406 4.953125 9.726562 5.019531 9.75 C 5.082031 9.78125 5.152344 9.804688 5.226562 9.8125 C 5.292969 9.828125 5.367188 9.839844 5.433594 9.839844 C 5.507812 9.839844 5.578125 9.828125 5.644531 9.8125 C 5.71875 9.800781 5.785156 9.78125 5.851562 9.75 C 5.917969 9.726562 5.980469 9.691406 6.039062 9.652344 C 6.097656 9.613281 6.152344 9.570312 6.203125 9.515625 C 6.253906 9.46875 6.296875 9.414062 6.335938 9.355469 C 6.375 9.296875 6.410156 9.234375 6.441406 9.164062 C 6.464844 9.101562 6.488281 9.03125 6.5 8.960938 C 6.515625 8.890625 6.523438 8.820312 6.523438 8.75 C 6.523438 8.679688 6.515625 8.609375 6.5 8.539062 C 6.488281 8.46875 6.464844 8.398438 6.441406 8.335938 C 6.410156 8.265625 6.375 8.203125 6.335938 8.144531 C 6.296875 8.085938 6.253906 8.03125 6.203125 7.984375 C 5.953125 7.730469 5.578125 7.613281 5.226562 7.6875 C 5.152344 7.699219 5.082031 7.71875 5.019531 7.75 C 4.953125 7.773438 4.890625 7.808594 4.828125 7.847656 C 4.769531 7.886719 4.71875 7.929688 4.667969 7.984375 C 4.613281 8.03125 4.570312 8.085938 4.53125 8.144531 C 4.492188 8.203125 4.457031 8.265625 4.433594 8.335938 C 4.40625 8.398438 4.382812 8.46875 4.371094 8.539062 C 4.355469 8.609375 4.34375 8.679688 4.34375 8.75 C 4.34375 8.820312 4.355469 8.890625 4.371094 8.960938 C 4.382812 9.03125 4.40625 9.101562 4.433594 9.164062 Z M 4.433594 9.164062 "/>
<path style=" stroke:none;fill-rule:nonzero;fill:rgb(0%,0%,0%);fill-opacity:1;" d="M 40.21875 17.390625 C 43.210938 17.390625 45.65625 14.953125 45.65625 11.957031 C 45.65625 11.359375 45.164062 10.867188 44.566406 10.867188 C 43.964844 10.867188 43.476562 11.359375 43.476562 11.957031 C 43.476562 13.753906 42.015625 15.21875 40.21875 15.21875 C 38.417969 15.21875 36.957031 13.753906 36.957031 11.957031 C 36.957031 5.359375 31.59375 0 25 0 C 18.40625 0 13.042969 5.359375 13.042969 11.957031 C 13.042969 13.753906 11.582031 15.21875 9.78125 15.21875 C 7.984375 15.21875 6.523438 13.753906 6.523438 11.957031 C 6.523438 11.359375 6.035156 10.867188 5.433594 10.867188 C 4.835938 10.867188 4.34375 11.359375 4.34375 11.957031 C 4.34375 14.953125 6.789062 17.390625 9.785156 17.390625 C 11.007812 17.390625 12.132812 16.988281 13.042969 16.304688 L 13.042969 18.476562 C 13.042969 21.476562 10.605469 23.910156 7.609375 23.910156 C 7.011719 23.910156 6.523438 23.429688 6.523438 22.828125 C 6.523438 22.226562 6.035156 21.738281 5.433594 21.738281 C 4.835938 21.738281 4.34375 22.226562 4.34375 22.828125 C 4.34375 24.625 5.8125 26.089844 7.609375 26.089844 C 9.734375 26.089844 11.660156 25.210938 13.042969 23.792969 L 13.042969 25 C 13.042969 28 10.605469 30.433594 7.609375 30.433594 C 7.011719 30.433594 6.523438 29.945312 6.523438 29.34375 C 6.523438 28.75 6.035156 28.261719 5.433594 28.261719 C 4.835938 28.261719 4.351562 28.75 4.351562 29.34375 C 4.351562 31.148438 5.8125 32.609375 7.609375 32.609375 C 9.734375 32.609375 11.660156 31.726562 13.042969 30.316406 L 13.042969 33.695312 C 13.042969 35.464844 10.554688 36.957031 7.609375 36.957031 C 7.011719 36.957031 6.523438 36.46875 6.523438 35.867188 C 6.523438 35.269531 6.035156 34.78125 5.433594 34.78125 C 4.835938 34.78125 4.351562 35.269531 4.351562 35.867188 C 4.351562 37.664062 5.8125 39.132812 7.609375 39.132812 C 10.035156 39.132812 12.164062 38.359375 13.546875 37.128906 C 13.914062 38.355469 14.472656 39.496094 15.191406 40.523438 C 14.921875 42.152344 12.558594 43.476562 9.785156 43.476562 C 9.183594 43.476562 8.695312 42.988281 8.695312 42.390625 C 8.695312 41.792969 8.207031 41.304688 7.609375 41.304688 C 7.007812 41.304688 6.523438 41.792969 6.523438 42.390625 C 6.523438 44.1875 7.984375 45.65625 9.785156 45.65625 C 12.96875 45.65625 15.640625 44.320312 16.789062 42.378906 C 17.613281 43.160156 18.546875 43.824219 19.566406 44.34375 L 19.566406 46.738281 C 19.566406 47.339844 19.078125 47.828125 18.476562 47.828125 C 17.882812 47.828125 17.390625 48.3125 17.390625 48.910156 C 17.390625 49.511719 17.882812 50 18.476562 50 C 20.277344 50 21.738281 48.535156 21.738281 46.738281 L 21.738281 45.199219 C 22.777344 45.492188 23.871094 45.65625 25 45.65625 C 26.132812 45.65625 27.226562 45.492188 28.261719 45.199219 L 28.261719 46.738281 C 28.261719 48.535156 29.726562 50 31.523438 50 C 32.125 50 32.609375 49.511719 32.609375 48.910156 C 32.609375 48.3125 32.125 47.828125 31.523438 47.828125 C 30.921875 47.828125 30.433594 47.339844 30.433594 46.738281 L 30.433594 44.34375 C 31.453125 43.824219 32.386719 43.160156 33.210938 42.378906 C 34.359375 44.320312 37.03125 45.65625 40.21875 45.65625 C 42.015625 45.65625 43.476562 44.1875 43.476562 42.390625 C 43.476562 41.792969 42.992188 41.304688 42.390625 41.304688 C 41.792969 41.304688 41.304688 41.792969 41.304688 42.390625 C 41.304688 42.988281 40.816406 43.476562 40.21875 43.476562 C 37.445312 43.476562 35.078125 42.152344 34.808594 40.523438 C 35.527344 39.496094 36.085938 38.355469 36.453125 37.128906 C 37.835938 38.359375 39.964844 39.132812 42.390625 39.132812 C 44.1875 39.132812 45.65625 37.664062 45.65625 35.867188 C 45.65625 35.269531 45.164062 34.785156 44.566406 34.785156 C 43.964844 34.785156 43.476562 35.269531 43.476562 35.867188 C 43.476562 36.46875 42.992188 36.957031 42.390625 36.957031 C 39.449219 36.957031 36.957031 35.464844 36.957031 33.695312 L 36.957031 30.316406 C 38.339844 31.726562 40.265625 32.609375 42.390625 32.609375 C 44.1875 32.609375 45.65625 31.148438 45.65625 29.34375 C 45.65625 28.75 45.164062 28.261719 44.566406 28.261719 C 43.964844 28.261719 43.480469 28.75 43.480469 29.34375 C 43.480469 29.945312 42.992188 30.433594 42.390625 30.433594 C 39.394531 30.433594 36.957031 28 36.957031 25 L 36.957031 23.792969 C 38.339844 25.210938 40.265625 26.089844 42.390625 26.089844 C 44.1875 26.089844 45.65625 24.625 45.65625 22.828125 C 45.65625 22.226562 45.164062 21.738281 44.566406 21.738281 C 43.964844 21.738281 43.480469 22.226562 43.480469 22.828125 C 43.480469 23.429688 42.992188 23.910156 42.390625 23.910156 C 39.394531 23.910156 36.957031 21.476562 36.957031 18.476562 L 36.957031 16.304688 C 37.867188 16.988281 38.992188 17.390625 40.21875 17.390625 Z M 34.78125 33.695312 C 34.78125 39.09375 30.394531 43.476562 25 43.476562 C 19.605469 43.476562 15.21875 39.09375 15.21875 33.695312 L 15.21875 11.957031 C 15.21875 6.5625 19.605469 2.171875 25 2.171875 C 30.394531 2.171875 34.78125 6.5625 34.78125 11.957031 Z M 34.78125 33.695312 "/>
<path style=" stroke:none;fill-rule:nonzero;fill:rgb(0%,0%,0%);fill-opacity:1;" d="M 25 8.695312 C 22 8.695312 19.566406 11.132812 19.566406 14.132812 C 19.566406 17.128906 22 19.566406 25 19.566406 C 28 19.566406 30.433594 17.128906 30.433594 14.132812 C 30.433594 11.132812 28 8.695312 25 8.695312 Z M 25 17.390625 C 23.203125 17.390625 21.738281 15.929688 21.738281 14.132812 C 21.738281 12.335938 23.203125 10.867188 25 10.867188 C 26.796875 10.867188 28.261719 12.335938 28.261719 14.132812 C 28.261719 15.929688 26.796875 17.390625 25 17.390625 Z M 25 17.390625 "/>
<path style=" stroke:none;fill-rule:nonzero;fill:rgb(0%,0%,0%);fill-opacity:1;" d="M 28.167969 21.738281 L 21.832031 21.738281 C 20.582031 21.738281 19.566406 22.753906 19.566406 24.003906 L 19.566406 25.035156 C 19.566406 26.816406 21.011719 28.261719 22.789062 28.261719 L 27.210938 28.261719 C 28.988281 28.261719 30.433594 26.816406 30.433594 25.035156 L 30.433594 24.003906 C 30.433594 22.753906 29.417969 21.738281 28.167969 21.738281 Z M 28.261719 25.035156 C 28.261719 25.617188 27.789062 26.089844 27.210938 26.089844 L 22.789062 26.089844 C 22.210938 26.089844 21.738281 25.617188 21.738281 25.035156 L 21.738281 24.003906 C 21.738281 23.953125 21.777344 23.910156 21.832031 23.910156 L 28.167969 23.910156 C 28.21875 23.910156 28.261719 23.953125 28.261719 24.003906 Z M 28.261719 25.035156 "/>
</g>
</svg>
