<?xml version="1.0" encoding="UTF-8"?>
<svg xmlns="http://www.w3.org/2000/svg" xmlns:xlink="http://www.w3.org/1999/xlink" width="50px" height="px" viewBox="0 0 50 50" version="1.1">
<g id="surface1">
<path style=" stroke:none;fill-rule:nonzero;fill:rgb(20%,30.196078%,36.078431%);fill-opacity:1;" d="M 25 0 C 11.191406 0 0 11.191406 0 25 C 0 38.808594 11.191406 50 25 50 C 38.808594 50 50 38.808594 50 25 C 50 11.191406 38.808594 0 25 0 Z M 25 0 "/>
<path style=" stroke:none;fill-rule:nonzero;fill:rgb(82.745098%,82.745098%,81.960784%);fill-opacity:1;" d="M 18.378906 26.097656 L 15.210938 24.445312 C 15.09375 24.382812 14.945312 24.417969 14.867188 24.523438 L 10.871094 29.757812 C 10.816406 29.832031 10.800781 29.925781 10.828125 30.011719 L 14.132812 40.066406 C 14.171875 40.183594 14.28125 40.257812 14.394531 40.257812 C 14.421875 40.257812 14.445312 40.253906 14.46875 40.246094 C 14.609375 40.207031 14.695312 40.0625 14.664062 39.921875 L 12.636719 31 L 18.421875 26.5625 C 18.496094 26.503906 18.535156 26.414062 18.527344 26.320312 C 18.519531 26.226562 18.464844 26.144531 18.378906 26.097656 Z M 18.378906 26.097656 "/>
<path style=" stroke:none;fill-rule:nonzero;fill:rgb(94.901961%,94.901961%,94.901961%);fill-opacity:1;" d="M 12.101562 30.738281 L 17.222656 25.496094 L 15.210938 24.445312 C 15.09375 24.382812 14.945312 24.417969 14.867188 24.523438 L 10.871094 29.757812 C 10.816406 29.832031 10.800781 29.925781 10.828125 30.011719 L 14.132812 40.066406 C 14.171875 40.183594 14.28125 40.257812 14.394531 40.257812 C 14.421875 40.257812 14.445312 40.253906 14.46875 40.246094 C 14.609375 40.207031 14.695312 40.0625 14.664062 39.921875 Z M 12.101562 30.738281 "/>
<path style=" stroke:none;fill-rule:nonzero;fill:rgb(82.745098%,82.745098%,81.960784%);fill-opacity:1;" d="M 39.105469 29.757812 L 35.109375 24.523438 C 35.03125 24.417969 34.882812 24.382812 34.765625 24.445312 L 31.597656 26.097656 C 31.511719 26.144531 31.457031 26.226562 31.449219 26.320312 C 31.441406 26.414062 31.480469 26.503906 31.554688 26.5625 L 37.339844 31 L 35.3125 39.921875 C 35.28125 40.0625 35.363281 40.207031 35.507812 40.246094 C 35.53125 40.253906 35.554688 40.257812 35.582031 40.257812 C 35.695312 40.257812 35.804688 40.183594 35.84375 40.066406 L 39.148438 30.011719 C 39.175781 29.925781 39.160156 29.832031 39.105469 29.757812 Z M 39.105469 29.757812 "/>
<path style=" stroke:none;fill-rule:nonzero;fill:rgb(82.745098%,82.745098%,81.960784%);fill-opacity:1;" d="M 27.71875 26.511719 C 27.683594 26.46875 27.632812 26.445312 27.578125 26.445312 L 22.375 26.445312 C 22.320312 26.445312 22.265625 26.46875 22.234375 26.511719 C 22.199219 26.554688 22.183594 26.609375 22.191406 26.664062 L 24.65625 40.234375 C 24.671875 40.320312 24.75 40.382812 24.839844 40.382812 L 25.183594 40.382812 C 25.273438 40.382812 25.347656 40.320312 25.363281 40.230469 L 27.757812 26.660156 C 27.769531 26.609375 27.753906 26.554688 27.71875 26.511719 Z M 27.71875 26.511719 "/>
<path style=" stroke:none;fill-rule:nonzero;fill:rgb(94.901961%,94.901961%,94.901961%);fill-opacity:1;" d="M 25.695312 26.617188 C 25.6875 26.519531 25.605469 26.445312 25.511719 26.445312 L 24.472656 26.445312 C 24.375 26.445312 24.292969 26.519531 24.289062 26.617188 L 23.949219 31.460938 C 23.949219 31.472656 23.949219 31.480469 23.949219 31.488281 L 24.65625 40.214844 C 24.664062 40.308594 24.742188 40.382812 24.839844 40.382812 L 25.183594 40.382812 C 25.277344 40.382812 25.359375 40.308594 25.367188 40.214844 L 26.078125 31.429688 C 26.078125 31.417969 26.078125 31.410156 26.078125 31.398438 Z M 25.695312 26.617188 "/>
<path style=" stroke:none;fill-rule:nonzero;fill:rgb(94.901961%,94.901961%,94.901961%);fill-opacity:1;" d="M 39.105469 29.757812 L 35.109375 24.523438 C 35.03125 24.417969 34.882812 24.382812 34.765625 24.445312 L 32.753906 25.496094 L 37.875 30.738281 L 35.3125 39.921875 C 35.277344 40.0625 35.363281 40.207031 35.507812 40.246094 C 35.53125 40.253906 35.554688 40.257812 35.582031 40.257812 C 35.695312 40.257812 35.804688 40.183594 35.84375 40.066406 L 39.148438 30.011719 C 39.175781 29.925781 39.160156 29.832031 39.105469 29.757812 Z M 39.105469 29.757812 "/>
<path style=" stroke:none;fill-rule:nonzero;fill:rgb(76.862745%,64.313725%,1.960784%);fill-opacity:1;" d="M 25 17.972656 C 17.113281 17.972656 8.828125 17.980469 8.828125 20.820312 C 8.828125 23.660156 17.113281 28.261719 25 28.261719 C 32.886719 28.261719 41.171875 23.660156 41.171875 20.820312 C 41.171875 17.980469 32.886719 17.972656 25 17.972656 Z M 25 17.972656 "/>
<path style=" stroke:none;fill-rule:nonzero;fill:rgb(85.882353%,73.333333%,0%);fill-opacity:1;" d="M 41.578125 20.085938 C 41.578125 16.789062 34.15625 14.117188 25 14.117188 C 15.84375 14.117188 8.421875 16.789062 8.421875 20.085938 C 8.421875 23.382812 15.84375 26.054688 25 26.054688 C 34.15625 26.054688 41.578125 23.382812 41.578125 20.085938 Z M 41.578125 20.085938 "/>
<path style=" stroke:none;fill-rule:nonzero;fill:rgb(80.784314%,80.784314%,80.784314%);fill-opacity:1;" d="M 25 9.617188 C 19.496094 9.617188 15.035156 15.3125 15.035156 19.996094 C 15.035156 22.382812 19.496094 23.667969 25 23.667969 C 30.503906 23.667969 34.964844 22.382812 34.964844 19.996094 C 34.964844 15.21875 30.503906 9.617188 25 9.617188 Z M 25 9.617188 "/>
<path style=" stroke:none;fill-rule:nonzero;fill:rgb(88.627451%,88.627451%,88.627451%);fill-opacity:1;" d="M 25 11.105469 C 20.664062 11.105469 17.148438 15.59375 17.148438 19.285156 C 17.148438 21.164062 29.335938 11.105469 25 11.105469 Z M 25 11.105469 "/>
</g>
</svg>
